<?xml version="1.0" encoding="UTF-8" standalone="no"?>
<!-- Created with Inkscape (http://www.inkscape.org/) -->

<svg
   xmlns:dc="http://purl.org/dc/elements/1.1/"
   xmlns:cc="http://creativecommons.org/ns#"
   xmlns:rdf="http://www.w3.org/1999/02/22-rdf-syntax-ns#"
   xmlns:svg="http://www.w3.org/2000/svg"
   xmlns="http://www.w3.org/2000/svg"
   xmlns:sodipodi="http://sodipodi.sourceforge.net/DTD/sodipodi-0.dtd"
   xmlns:inkscape="http://www.inkscape.org/namespaces/inkscape"
   width="5.8395438mm"
   height="5.8395438mm"
   viewBox="0 0 5.8395438 5.8395438"
   version="1.1"
   id="svg33"
   inkscape:version="0.92.5 (2060ec1f9f, 2020-04-08)"
   sodipodi:docname="favicon.svg">
  <defs
     id="defs27" />
  <sodipodi:namedview
     id="base"
     pagecolor="#ffffff"
     bordercolor="#666666"
     borderopacity="1.0"
     inkscape:pageopacity="0.0"
     inkscape:pageshadow="2"
     inkscape:zoom="11.2"
     inkscape:cx="14.483356"
     inkscape:cy="16.491864"
     inkscape:document-units="mm"
     inkscape:current-layer="layer1"
     showgrid="false"
     inkscape:window-width="1300"
     inkscape:window-height="704"
     inkscape:window-x="66"
     inkscape:window-y="27"
     inkscape:window-maximized="1" />
  <metadata
     id="metadata30">
    <rdf:RDF>
      <cc:Work
         rdf:about="">
        <dc:format>image/svg+xml</dc:format>
        <dc:type
           rdf:resource="http://purl.org/dc/dcmitype/StillImage" />
        <dc:title></dc:title>
      </cc:Work>
    </rdf:RDF>
  </metadata>
  <g
     inkscape:label="Camada 1"
     inkscape:groupmode="layer"
     id="layer1"
     transform="translate(-37.185779,-153.87946)">
    <path
       d="m 40.108301,153.90787 a 2.8886087,2.8886087 0 0 1 2.888608,2.88861 2.8886087,2.8886087 0 1 1 -2.888608,-2.88861 z"
       style="fill:#835ca6;fill-rule:evenodd;stroke:#835ca6;stroke-width:0.05682768;stroke-linecap:butt;stroke-linejoin:miter;stroke-dasharray:none"
       id="path2-3"
       inkscape:connector-curvature="0" />
    <path
       d="m 37.808067,157.57344 h 2.795534 l 1.380056,0.68213 -2.361794,0.44942 z"
       style="fill:none;stroke:#ffffff;stroke-width:0.28414848;stroke-linecap:butt;stroke-linejoin:miter;stroke-dasharray:none"
       id="path4"
       inkscape:connector-curvature="0" />
    <path
       d="m 40.125714,155.14546 c 0.547717,0 0.991712,0.44398 0.991712,0.9917 0,0.54772 -0.443995,1.95278 -0.991712,1.95278 -0.547728,0 -0.991713,-1.40506 -0.991713,-1.95278 0,-0.54772 0.443985,-0.9917 0.991713,-0.9917 z m -0.0089,0.24976 c 0.400271,0 0.724657,0.32439 0.724657,0.72467 0,0.40026 -0.324386,0.72464 -0.724657,0.72464 -0.40019,0 -0.724656,-0.32438 -0.724656,-0.72464 0,-0.40028 0.324466,-0.72467 0.724656,-0.72467 z"
       style="fill:#ffffff;fill-rule:evenodd;stroke:#ffffff;stroke-width:0.14207426;stroke-linecap:butt;stroke-linejoin:miter;stroke-dasharray:none"
       id="path6"
       inkscape:connector-curvature="0" />
    <path
       d="m 40.120149,155.4438 a 0.67219867,0.67219867 0 0 1 0.6722,0.67219 0.67219867,0.67219867 0 1 1 -0.6722,-0.67219 z"
       style="fill:none;stroke:#ffffff;stroke-width:0.02841885;stroke-linecap:butt;stroke-linejoin:miter;stroke-dasharray:none"
       id="path8"
       inkscape:connector-curvature="0" />
  </g>
</svg>
